<?xml version="1.0" standalone="no"?>
<!DOCTYPE svg PUBLIC "-//W3C//DTD SVG 20010904//EN"
 "http://www.w3.org/TR/2001/REC-SVG-20010904/DTD/svg10.dtd">
<svg version="1.0" xmlns="http://www.w3.org/2000/svg"
 width="1645.000000pt" height="1645.000000pt" viewBox="0 0 1645.000000 1645.000000"
 preserveAspectRatio="xMidYMid meet">
<metadata>
Created by potrace 1.14, written by Peter Selinger 2001-2017
</metadata>
<g transform="translate(0.000000,1645.000000) scale(0.100000,-0.100000)"
fill="#000000" stroke="none">
<path d="M7470 16440 c0 -7 -3 -10 -6 -7 -4 3 -15 2 -25 -4 -12 -6 -19 -6 -19
0 0 6 -11 6 -29 1 -15 -4 -42 -7 -60 -5 -18 1 -31 -2 -31 -9 0 -6 -5 -4 -10 4
-5 8 -10 10 -10 4 0 -6 -12 -10 -27 -10 -16 1 -36 -2 -45 -7 -12 -5 -18 -4
-18 5 0 10 -2 10 -9 -1 -5 -8 -18 -12 -30 -8 -12 3 -21 2 -21 -2 0 -3 -17 -6
-37 -6 -21 1 -42 -1 -48 -4 -5 -3 -24 -6 -41 -8 -46 -4 -58 -7 -66 -18 -5 -6
-8 -5 -8 4 0 9 -4 10 -12 4 -7 -6 -29 -10 -48 -10 -24 0 -34 -4 -32 -13 2 -11
0 -11 -12 -1 -8 7 -17 8 -20 2 -3 -5 -15 -7 -26 -4 -13 3 -20 0 -20 -8 0 -10
-3 -10 -12 -1 -9 9 -14 7 -24 -6 -8 -9 -14 -12 -14 -7 0 13 -49 12 -58 -1 -4
-5 -16 -10 -27 -10 -11 -1 -36 -5 -55 -9 -19 -4 -43 -7 -52 -7 -10 0 -18 -3
-18 -8 0 -4 -6 -8 -12 -7 -41 1 -79 -4 -75 -10 3 -5 -16 -9 -41 -11 -25 -1
-50 -6 -56 -11 -6 -5 -19 -7 -28 -6 -10 2 -18 -2 -18 -8 0 -5 -3 -7 -7 -4 -3
4 -12 2 -20 -4 -10 -9 -13 -8 -13 2 0 10 -3 11 -8 3 -4 -7 -20 -13 -37 -15
-16 -2 -35 -7 -42 -12 -7 -5 -17 -6 -23 -2 -5 3 -10 1 -10 -5 0 -6 -4 -9 -9
-5 -5 3 -12 1 -16 -4 -3 -6 -12 -8 -20 -4 -8 3 -15 1 -15 -4 0 -5 -11 -10 -25
-11 -46 -3 -55 -5 -55 -13 0 -7 -51 -19 -82 -20 -10 0 -18 -5 -18 -11 0 -5 -7
-8 -15 -4 -8 3 -15 1 -15 -5 0 -6 -4 -8 -9 -5 -5 4 -12 0 -14 -6 -4 -9 -6 -9
-6 -1 -1 7 -13 5 -38 -7 -20 -10 -43 -16 -50 -13 -7 3 -13 1 -13 -4 0 -5 -6
-10 -12 -11 -23 -2 -43 -7 -55 -15 -7 -5 -17 -5 -23 -2 -5 3 -10 1 -10 -5 0
-6 -4 -9 -9 -5 -5 3 -15 0 -23 -7 -7 -7 -22 -14 -33 -16 -19 -2 -44 -8 -55
-12 -3 -1 -8 -2 -12 -1 -5 0 -8 -3 -8 -9 0 -5 -7 -7 -15 -4 -8 3 -22 -1 -31
-10 -8 -9 -20 -14 -25 -11 -5 4 -9 2 -9 -4 0 -5 -11 -8 -25 -6 -15 1 -25 -3
-25 -10 0 -7 -8 -12 -17 -11 -10 2 -24 -4 -31 -13 -10 -12 -12 -12 -6 -1 6 12
5 13 -7 4 -8 -6 -27 -14 -42 -18 -15 -4 -26 -10 -23 -15 3 -4 -6 -7 -19 -5
-14 1 -25 -2 -25 -7 0 -5 -3 -8 -7 -8 -19 3 -34 -2 -29 -10 3 -4 -5 -8 -17 -7
-12 1 -28 -4 -35 -11 -7 -7 -20 -9 -29 -6 -11 4 -14 3 -9 -5 5 -8 -2 -12 -19
-12 -14 0 -24 -4 -20 -9 3 -6 -4 -8 -15 -6 -11 2 -20 0 -20 -4 0 -8 -32 -22
-55 -25 -5 -1 -12 -4 -15 -7 -4 -6 -69 -37 -90 -44 -44 -14 -88 -39 -84 -47 4
-6 -2 -8 -15 -3 -13 4 -21 2 -21 -5 0 -7 -8 -10 -20 -7 -11 3 -18 2 -15 -2 2
-4 -11 -14 -30 -21 -19 -8 -35 -17 -35 -22 0 -4 -3 -8 -7 -7 -16 2 -53 -14
-53 -22 0 -5 -3 -9 -7 -8 -16 2 -53 -14 -53 -22 0 -5 -9 -9 -20 -9 -11 0 -20
-3 -20 -7 0 -5 -20 -16 -45 -26 -25 -11 -42 -23 -39 -28 3 -5 -2 -6 -10 -3 -9
3 -16 1 -16 -5 0 -6 -3 -10 -7 -9 -13 3 -63 -25 -63 -34 0 -5 -4 -6 -10 -3 -5
3 -10 1 -10 -4 0 -6 -3 -10 -7 -9 -12 2 -47 -14 -55 -26 -7 -11 -11 -12 -44
-15 -8 0 -12 -5 -9 -11 3 -5 0 -10 -8 -10 -8 0 -20 -6 -27 -14 -6 -8 -19 -12
-27 -9 -10 4 -14 2 -10 -4 3 -5 -12 -17 -33 -27 -22 -10 -40 -22 -40 -27 0 -5
-3 -8 -7 -7 -9 3 -64 -32 -74 -45 -3 -5 -10 -8 -15 -8 -5 1 -17 -6 -27 -14 -9
-8 -20 -15 -23 -15 -3 0 -21 -11 -41 -25 -20 -13 -41 -21 -46 -18 -6 3 -8 2
-5 -3 7 -11 -17 -35 -26 -27 -3 4 -6 1 -6 -6 0 -7 -5 -9 -10 -6 -5 3 -10 1
-10 -4 0 -6 -6 -11 -14 -11 -8 0 -17 -7 -20 -16 -3 -8 -10 -12 -16 -9 -6 3
-13 -1 -16 -9 -3 -9 -10 -13 -15 -10 -5 3 -9 2 -9 -3 0 -4 -25 -24 -55 -43
-30 -19 -55 -38 -55 -42 0 -5 -6 -8 -12 -8 -7 0 -26 -11 -43 -25 -76 -61 -139
-104 -147 -99 -4 3 -5 -3 -1 -12 4 -11 2 -15 -4 -11 -6 4 -20 -1 -31 -11 -58
-49 -67 -56 -71 -53 -2 1 -8 -4 -13 -13 -5 -9 -14 -13 -20 -10 -7 4 -8 2 -4
-4 4 -6 -4 -16 -16 -23 -13 -7 -27 -18 -31 -25 -4 -8 -13 -14 -19 -14 -6 0
-21 -11 -34 -25 -13 -14 -28 -25 -34 -25 -5 0 -10 -4 -10 -9 0 -6 -14 -18 -30
-28 -17 -10 -28 -23 -26 -30 3 -7 -1 -10 -10 -6 -7 3 -14 0 -14 -6 0 -6 -5
-11 -11 -11 -15 0 -39 -26 -32 -34 4 -3 1 -6 -6 -6 -17 0 -72 -46 -64 -54 4
-3 -1 -6 -10 -6 -9 0 -22 -9 -29 -20 -7 -11 -17 -20 -21 -20 -12 0 -37 -27
-37 -40 0 -6 -4 -9 -9 -5 -6 3 -15 -4 -21 -15 -6 -11 -15 -18 -19 -15 -5 3
-12 -2 -15 -11 -3 -8 -10 -12 -16 -9 -6 4 -7 -1 -3 -11 4 -12 3 -15 -5 -10 -8
4 -12 1 -12 -10 0 -10 -3 -15 -6 -11 -8 8 -33 -16 -27 -26 2 -4 0 -6 -5 -5 -5
2 -26 -14 -46 -34 -21 -21 -43 -38 -49 -38 -6 0 -7 -3 -4 -6 4 -4 -10 -20 -30
-35 -20 -16 -33 -29 -29 -29 3 0 -2 -8 -11 -19 -10 -10 -22 -18 -28 -17 -5 1
-9 -5 -8 -11 2 -7 -1 -13 -6 -13 -4 0 -22 -13 -39 -30 -18 -16 -30 -30 -27
-30 2 0 -18 -22 -45 -48 -28 -27 -47 -52 -43 -55 6 -7 -12 -11 -30 -8 -5 1 -6
-3 -3 -8 3 -5 -1 -14 -9 -21 -8 -7 -12 -17 -8 -24 3 -6 3 -8 -1 -4 -9 8 -66
-47 -66 -63 0 -6 -4 -7 -10 -4 -5 3 -10 2 -10 -4 0 -5 -11 -22 -25 -37 -14
-15 -25 -32 -25 -37 0 -6 -3 -7 -7 -4 -8 9 -39 -34 -35 -48 2 -5 0 -7 -3 -3
-4 4 -19 -7 -34 -24 -14 -17 -37 -42 -49 -54 -15 -14 -21 -28 -16 -36 4 -7 4
-10 -1 -6 -8 8 -45 -28 -45 -44 0 -5 -4 -7 -9 -3 -5 3 -12 -3 -16 -14 -3 -10
-20 -35 -38 -54 -18 -19 -33 -40 -35 -47 -2 -7 -16 -24 -32 -39 -17 -14 -30
-31 -30 -38 0 -7 -4 -13 -10 -13 -5 0 -10 -7 -10 -15 0 -8 -5 -15 -12 -15 -6
0 -9 -3 -5 -6 3 -3 -6 -17 -21 -31 -15 -13 -20 -22 -12 -18 8 4 4 -3 -9 -14
-13 -12 -20 -21 -16 -21 5 0 -4 -11 -19 -25 -14 -13 -26 -27 -26 -30 1 -21 -1
-25 -9 -21 -5 3 -14 -8 -20 -24 -5 -17 -15 -30 -22 -30 -7 0 -9 -3 -6 -6 4 -4
-1 -14 -11 -23 -9 -9 -18 -23 -20 -31 -2 -8 -12 -23 -23 -33 -10 -10 -19 -22
-19 -27 0 -6 -9 -19 -20 -30 -11 -11 -20 -27 -20 -36 0 -8 -4 -13 -9 -10 -5 3
-12 -5 -15 -19 -4 -14 -11 -25 -16 -25 -6 0 -10 -5 -10 -11 0 -6 -9 -22 -20
-36 -11 -14 -17 -30 -13 -36 3 -5 1 -7 -4 -4 -6 4 -18 -8 -27 -27 -8 -18 -22
-39 -31 -46 -8 -7 -13 -16 -10 -20 2 -4 -4 -16 -15 -27 -10 -12 -16 -24 -13
-27 4 -3 1 -6 -5 -6 -7 0 -12 -9 -12 -21 0 -11 -4 -18 -8 -15 -5 3 -14 -11
-21 -30 -7 -18 -17 -34 -22 -34 -5 0 -9 -6 -9 -13 0 -7 -9 -23 -20 -35 -12
-12 -18 -22 -15 -22 7 0 -57 -114 -67 -118 -5 -2 -6 -7 -3 -12 3 -5 -2 -16
-11 -24 -8 -9 -13 -16 -9 -16 3 0 -3 -13 -15 -30 -12 -16 -18 -30 -13 -30 4 0
-3 -7 -15 -16 -12 -8 -20 -19 -17 -24 6 -10 -14 -50 -30 -62 -7 -5 -7 -8 0 -8
7 0 7 -3 0 -8 -14 -10 -45 -71 -45 -88 0 -8 -4 -14 -10 -14 -5 0 -10 -7 -10
-15 0 -26 -23 -65 -34 -58 -6 3 -8 3 -4 -1 8 -10 -11 -66 -23 -66 -4 0 -6 -7
-3 -15 4 -8 1 -15 -5 -15 -6 0 -11 -9 -11 -19 0 -11 -5 -23 -10 -26 -6 -4 -8
-10 -5 -15 3 -4 -2 -10 -10 -14 -8 -3 -12 -12 -9 -21 4 -8 1 -15 -7 -15 -7 0
-9 -3 -6 -6 3 -4 0 -16 -8 -28 -8 -11 -15 -29 -15 -39 0 -11 -4 -15 -12 -11
-7 4 -8 3 -4 -5 4 -6 2 -18 -4 -26 -6 -8 -9 -19 -5 -25 3 -5 -1 -10 -10 -10
-9 0 -13 -5 -10 -10 4 -6 -2 -25 -13 -43 -10 -18 -18 -40 -16 -50 1 -9 -1 -15
-6 -12 -8 5 -23 -32 -21 -52 1 -7 -2 -13 -6 -13 -5 0 -9 -10 -10 -22 -1 -11
-6 -24 -10 -27 -8 -6 -15 -27 -16 -48 0 -7 -4 -13 -8 -13 -5 0 -11 -16 -15
-35 -3 -19 -9 -35 -13 -35 -4 0 -8 -7 -9 -15 -1 -8 -3 -22 -4 -30 -1 -8 -6
-15 -11 -15 -6 0 -8 -2 -5 -6 3 -3 -3 -27 -13 -53 -10 -27 -15 -51 -12 -55 3
-3 -1 -8 -9 -11 -10 -4 -14 -14 -10 -27 3 -12 1 -19 -4 -16 -5 4 -10 -8 -11
-25 -1 -17 -8 -34 -14 -38 -7 -4 -9 -14 -6 -23 4 -9 1 -16 -4 -16 -6 0 -9 -9
-6 -20 3 -10 -2 -25 -9 -31 -8 -7 -13 -21 -12 -33 2 -12 -2 -20 -9 -19 -7 2
-10 -4 -7 -12 4 -9 0 -23 -7 -32 -12 -14 -12 -16 1 -8 12 6 13 5 3 -6 -7 -7
-13 -23 -13 -36 0 -13 -4 -23 -9 -23 -6 0 -8 -9 -6 -20 2 -11 -1 -20 -6 -20
-6 0 -7 -9 -4 -20 4 -12 2 -20 -5 -20 -7 0 -10 -7 -6 -15 3 -8 1 -15 -3 -15
-5 0 -8 -15 -7 -34 1 -22 -3 -32 -11 -29 -8 3 -10 -3 -6 -18 5 -17 3 -20 -8
-14 -11 7 -12 6 -2 -6 7 -9 9 -19 4 -25 -5 -5 -11 -18 -13 -29 -1 -11 -7 -23
-13 -27 -6 -5 -4 -8 5 -8 10 0 11 -3 4 -8 -10 -6 -21 -50 -26 -99 -1 -7 -5
-13 -10 -13 -5 0 -6 -11 -4 -25 3 -14 0 -25 -6 -25 -7 0 -7 -5 1 -14 9 -10 8
-15 -4 -19 -8 -4 -12 -13 -9 -22 4 -8 1 -15 -6 -15 -10 0 -10 -3 0 -15 7 -8 8
-15 3 -15 -5 0 -10 -6 -10 -12 0 -7 -4 -26 -8 -43 -3 -16 -8 -44 -10 -62 -1
-17 -6 -37 -11 -44 -4 -7 -8 -30 -8 -51 0 -21 -3 -38 -7 -38 -4 0 -6 -11 -4
-25 1 -14 -1 -28 -5 -30 -5 -3 -7 -16 -5 -30 1 -14 -1 -25 -5 -25 -4 0 -6 -11
-5 -25 2 -14 -2 -25 -8 -25 -7 0 -5 -5 3 -10 8 -5 10 -10 4 -10 -6 0 -12 -21
-13 -47 -1 -26 -7 -51 -14 -55 -9 -6 -9 -8 1 -8 8 0 10 -5 5 -12 -8 -13 -13
-47 -14 -83 0 -10 -4 -25 -10 -31 -7 -8 -6 -14 1 -19 6 -3 7 -12 3 -18 -4 -7
-8 -23 -9 -37 -7 -94 -12 -139 -16 -146 -2 -5 -4 -28 -4 -51 1 -24 -2 -43 -6
-43 -8 0 -3 -1458 6 -1535 4 -33 8 -75 8 -92 0 -18 3 -31 7 -29 3 2 6 -16 5
-40 0 -24 3 -44 8 -44 5 0 4 -9 -2 -19 -7 -13 -7 -22 0 -26 15 -9 12 -27 -2
-19 -7 4 -6 -1 2 -12 9 -10 15 -36 15 -56 -1 -21 2 -38 6 -38 9 0 6 -20 -5
-39 -6 -10 -5 -12 2 -7 8 5 12 -4 12 -26 0 -19 6 -40 12 -47 11 -11 10 -12 -2
-6 -13 8 -13 7 -1 -8 11 -14 11 -17 0 -17 -9 0 -10 -3 -4 -8 6 -4 12 -18 14
-32 1 -14 8 -28 15 -32 7 -5 3 -8 -9 -8 -14 0 -16 -3 -7 -9 7 -4 14 -19 14
-32 1 -13 6 -30 11 -36 6 -9 5 -13 -3 -13 -9 0 -10 -3 -1 -13 6 -8 8 -17 4
-20 -3 -4 -1 -7 7 -7 10 0 10 -3 0 -15 -7 -8 -8 -15 -2 -15 5 0 12 -9 15 -20
3 -11 0 -20 -6 -20 -9 0 -9 -2 -1 -8 6 -4 10 -15 8 -24 -1 -10 1 -18 6 -18 4
0 8 -17 8 -37 0 -21 5 -39 11 -41 9 -3 8 -8 -1 -20 -9 -10 -9 -13 -1 -9 7 5
12 1 12 -10 0 -17 7 -55 11 -60 2 -2 4 -12 5 -23 1 -11 4 -22 5 -25 1 -3 3 -8
4 -12 1 -5 5 -14 10 -22 7 -11 6 -12 -5 -6 -12 8 -12 6 0 -8 7 -9 11 -17 8
-17 -3 0 -1 -15 4 -32 6 -18 12 -44 15 -58 3 -13 11 -31 17 -39 10 -12 9 -13
-3 -6 -12 6 -13 5 -3 -6 7 -7 13 -26 13 -41 0 -15 4 -28 9 -28 5 0 8 -8 6 -18
-1 -9 5 -26 14 -36 9 -11 10 -16 4 -12 -17 9 -17 -9 0 -26 6 -7 13 -22 14 -33
5 -37 9 -54 15 -61 4 -3 4 -12 1 -20 -3 -8 0 -14 7 -14 6 0 9 -3 7 -7 -3 -5 0
-19 6 -33 6 -14 11 -32 11 -41 1 -9 7 -23 15 -32 11 -14 11 -17 0 -17 -10 -1
-10 -3 2 -10 11 -6 15 -18 11 -36 -4 -20 -2 -25 8 -19 8 5 11 3 8 -6 -3 -8 2
-23 11 -33 9 -11 11 -16 4 -13 -7 5 -6 -4 3 -23 9 -16 13 -34 10 -39 -4 -5 -1
-13 5 -17 8 -5 9 -3 4 6 -5 8 -4 11 1 7 6 -3 9 -21 9 -41 -1 -19 1 -33 5 -31
7 5 37 -75 32 -87 -1 -5 3 -8 9 -8 5 0 8 -4 4 -9 -3 -5 1 -16 9 -24 8 -8 12
-17 9 -20 -3 -4 3 -23 14 -44 11 -21 18 -44 16 -50 -3 -7 0 -13 6 -13 6 0 11
-9 11 -20 0 -11 4 -20 8 -20 5 0 9 -7 10 -15 1 -8 3 -22 4 -30 1 -8 6 -15 11
-15 5 0 7 -6 4 -14 -3 -8 1 -20 9 -26 8 -7 14 -19 14 -26 0 -8 4 -22 9 -32 39
-78 49 -102 38 -96 -7 4 -1 -5 13 -21 14 -16 18 -24 10 -20 -10 6 -9 1 4 -13
10 -12 16 -28 12 -37 -3 -9 -2 -13 4 -10 6 3 10 -3 10 -15 0 -12 4 -18 10 -15
9 5 15 -15 11 -37 0 -5 3 -8 9 -8 5 0 10 -9 10 -20 0 -11 5 -20 11 -20 5 0 7
-4 4 -10 -3 -5 -1 -10 5 -10 7 0 10 -7 6 -15 -3 -8 -2 -15 2 -15 4 0 18 -25
32 -55 14 -30 28 -55 32 -55 4 0 5 -7 2 -15 -4 -8 -1 -15 6 -15 6 0 8 -4 5
-10 -3 -5 -1 -10 4 -10 6 0 11 -6 11 -14 0 -8 5 -16 10 -18 6 -2 12 -13 13
-25 0 -12 4 -20 7 -18 4 2 12 -12 19 -31 7 -18 17 -34 22 -34 6 0 7 -4 4 -10
-8 -13 19 -52 30 -42 5 4 5 2 1 -5 -6 -11 9 -49 25 -63 8 -7 22 -44 21 -52 -1
-5 3 -8 10 -8 6 0 8 -3 5 -6 -4 -4 3 -15 15 -25 11 -11 17 -19 13 -19 -4 0 -1
-8 8 -18 10 -10 14 -22 10 -25 -3 -4 -1 -7 6 -7 7 0 9 -4 6 -10 -3 -5 -2 -10
2 -10 5 0 14 -9 21 -21 11 -17 11 -20 0 -14 -7 5 -3 -2 10 -14 12 -12 22 -28
22 -36 0 -8 5 -15 11 -15 5 0 8 -4 5 -9 -3 -5 1 -11 9 -15 8 -3 15 -12 15 -21
0 -8 4 -15 9 -15 5 0 17 -17 26 -37 10 -21 21 -40 26 -43 4 -3 9 -12 11 -20 5
-21 22 -39 32 -32 5 3 6 0 2 -6 -3 -6 -2 -13 4 -17 6 -4 8 -10 5 -15 -3 -4 2
-10 10 -14 8 -3 15 -12 15 -21 0 -8 5 -15 10 -15 6 0 10 -7 10 -15 0 -8 5 -15
10 -15 6 0 10 -7 10 -15 0 -8 5 -15 10 -15 6 0 10 -7 10 -15 0 -8 5 -15 10
-15 6 0 10 -7 10 -15 0 -8 5 -15 10 -15 6 0 10 -7 10 -15 0 -8 5 -15 10 -15 6
0 10 -7 10 -15 0 -8 5 -15 10 -15 6 0 10 -5 10 -11 0 -6 6 -16 12 -23 7 -7 22
-25 33 -40 11 -16 26 -34 33 -42 7 -8 11 -14 8 -14 -6 0 17 -30 46 -62 10 -10
15 -18 11 -18 -3 0 4 -9 17 -20 13 -11 20 -20 17 -20 -6 0 20 -34 50 -66 7 -7
13 -15 13 -19 0 -3 11 -18 24 -32 14 -15 22 -31 19 -36 -3 -6 -2 -8 3 -5 8 6
40 -20 38 -32 0 -7 15 -26 45 -56 13 -13 20 -24 16 -24 -4 0 3 -9 16 -21 13
-12 23 -25 22 -30 -2 -5 5 -9 14 -9 9 0 14 -3 10 -6 -3 -3 8 -19 24 -35 16
-16 27 -29 24 -29 -3 0 17 -23 44 -50 27 -28 47 -50 44 -50 -3 0 19 -25 50
-56 32 -30 57 -59 57 -65 0 -5 7 -9 15 -9 8 0 15 -7 15 -15 0 -9 7 -18 15 -21
8 -3 17 -14 20 -25 4 -11 11 -17 16 -14 5 4 9 -1 9 -9 0 -9 7 -16 16 -16 8 0
12 -4 9 -10 -3 -5 1 -10 10 -10 9 0 13 -4 10 -10 -3 -5 5 -15 19 -21 14 -7 23
-16 20 -20 -3 -5 -1 -9 4 -9 5 0 80 -70 167 -155 87 -85 163 -152 168 -148 6
3 8 2 5 -3 -3 -5 10 -22 29 -39 20 -16 48 -43 64 -58 16 -15 29 -25 29 -22 0
3 11 -5 24 -17 13 -13 21 -27 18 -32 -3 -5 -1 -6 5 -3 5 3 31 -14 57 -38 26
-25 50 -45 54 -45 4 0 14 -9 22 -20 8 -11 18 -20 22 -20 4 0 16 -8 27 -18 10
-9 34 -28 52 -42 18 -14 41 -33 51 -42 10 -10 18 -15 18 -10 0 4 5 -1 11 -11
6 -9 14 -15 20 -12 5 4 9 1 9 -5 0 -6 5 -8 12 -4 6 4 8 3 5 -3 -4 -6 9 -20 28
-32 19 -11 35 -25 35 -31 0 -6 5 -8 10 -5 6 3 13 -1 16 -9 3 -9 13 -16 21 -16
8 0 11 -5 7 -12 -5 -8 -2 -9 9 -5 12 4 17 1 17 -10 0 -9 3 -14 6 -10 3 3 16
-4 28 -17 11 -12 35 -29 53 -36 17 -8 29 -18 27 -22 -3 -4 0 -8 5 -8 6 0 13 0
16 0 3 0 14 -8 24 -17 37 -34 50 -43 61 -43 6 0 13 -7 16 -15 4 -8 9 -13 14
-10 4 2 16 -5 28 -15 12 -11 26 -20 32 -20 5 0 10 -5 10 -11 0 -5 4 -7 10 -4
5 3 10 1 10 -5 0 -6 4 -8 10 -5 5 3 10 -1 10 -9 0 -9 3 -15 8 -14 10 4 72 -35
72 -45 0 -4 4 -6 9 -3 5 3 14 -1 21 -9 7 -8 17 -15 22 -15 5 0 16 -7 25 -15 8
-8 19 -12 25 -9 7 4 8 2 4 -4 -6 -11 -1 -14 20 -11 3 0 14 -9 24 -21 10 -12
22 -22 27 -23 4 -1 7 -5 6 -9 -2 -5 0 -7 5 -7 23 4 52 -2 47 -10 -3 -5 11 -15
30 -22 19 -7 35 -17 35 -21 0 -4 6 -8 14 -8 8 0 16 -5 18 -10 2 -6 13 -12 26
-13 12 0 22 -7 22 -14 0 -7 3 -12 7 -11 9 1 46 -13 53 -21 3 -3 22 -14 43 -23
20 -10 37 -23 37 -28 0 -6 5 -8 11 -5 6 4 22 -4 36 -16 15 -13 23 -18 19 -11
-7 11 -4 11 13 0 12 -7 21 -16 21 -21 0 -4 4 -5 10 -2 6 3 10 1 10 -5 0 -7 7
-10 15 -6 8 3 15 1 15 -4 0 -6 7 -10 15 -10 8 0 15 -4 15 -10 0 -5 8 -10 19
-10 10 0 24 -7 31 -15 6 -8 15 -14 18 -13 4 1 17 -3 29 -10 13 -7 23 -9 23 -5
0 4 7 -2 15 -13 8 -10 15 -15 15 -11 0 5 7 2 15 -7 9 -8 22 -13 30 -10 8 4 15
1 15 -5 0 -6 7 -11 15 -11 8 0 15 -4 15 -9 0 -6 9 -8 20 -6 11 2 20 0 20 -5 0
-4 23 -16 50 -26 28 -10 50 -21 50 -25 0 -4 7 -10 16 -13 8 -3 12 -2 9 4 -3 5
7 2 24 -7 16 -10 28 -20 25 -24 -2 -3 8 -5 21 -3 14 1 25 -2 25 -7 0 -6 5 -7
10 -4 6 3 10 3 10 -2 0 -4 11 -13 25 -20 14 -6 23 -8 20 -3 -2 4 20 -5 50 -21
30 -16 55 -25 55 -22 0 4 5 2 12 -5 7 -7 20 -12 29 -12 10 0 25 -7 33 -16 12
-12 16 -12 16 -2 0 11 2 11 9 0 4 -7 18 -14 29 -15 12 -1 22 -5 22 -9 0 -4 9
-8 20 -8 11 0 20 -4 20 -8 0 -4 9 -9 20 -10 11 -1 29 -3 39 -4 11 -1 17 -6 15
-10 -3 -4 6 -8 20 -8 14 0 26 -5 26 -12 0 -6 3 -9 6 -5 4 3 19 0 35 -9 16 -8
29 -12 29 -9 0 3 10 0 23 -7 12 -7 28 -11 35 -10 6 2 12 -1 12 -6 0 -5 8 -9
18 -9 35 0 43 -3 36 -15 -4 -7 -3 -8 5 -4 6 4 19 2 28 -6 14 -11 16 -11 8 2
-7 12 -5 12 11 -1 10 -9 24 -14 31 -12 6 2 14 -1 18 -6 3 -6 11 -11 16 -11 6
0 7 4 4 10 -3 5 9 2 27 -7 71 -35 71 -35 62 -21 -6 10 -5 11 8 1 8 -7 18 -10
21 -6 4 3 7 0 7 -7 0 -7 3 -10 7 -7 3 4 13 1 21 -6 13 -10 14 -9 7 3 -7 12 -6
13 7 3 8 -7 18 -10 21 -6 4 3 7 1 7 -5 0 -7 11 -12 24 -12 14 0 28 -5 31 -10
4 -6 10 -8 15 -5 5 3 20 0 32 -7 13 -6 32 -12 43 -13 11 0 26 -4 34 -9 10 -6
12 -6 6 3 -5 9 -3 10 11 2 28 -14 58 -24 68 -22 4 1 15 -4 24 -11 13 -11 14
-11 7 2 -7 12 -6 13 6 3 9 -7 29 -14 45 -16 17 -2 35 -7 42 -11 7 -4 12 -4 12
0 0 3 7 1 15 -6 12 -10 15 -10 15 1 0 12 2 12 9 1 4 -8 11 -13 15 -13 3 1 7 1
9 0 6 -2 45 -9 72 -14 17 -2 46 -7 65 -11 19 -3 40 -7 45 -8 6 -1 15 -4 20 -7
6 -3 26 -6 45 -8 19 -1 38 -7 42 -14 6 -9 8 -9 8 1 0 7 5 10 11 6 6 -3 28 -9
48 -11 20 -3 38 -9 39 -14 2 -6 10 -5 18 2 8 7 14 7 14 1 0 -5 15 -10 33 -10
27 0 61 -4 127 -15 8 -1 20 -5 25 -8 6 -2 27 -4 48 -4 20 1 37 -3 37 -8 0 -5
8 -3 17 4 11 10 14 10 9 2 -5 -10 4 -13 36 -14 43 -2 74 -4 93 -9 6 -1 12 -1
15 0 19 7 39 7 34 -1 -3 -5 12 -9 33 -9 66 -1 108 -5 118 -12 18 -11 1428 -8
1442 4 9 7 13 7 13 -2 0 -10 4 -10 16 1 13 10 17 10 25 -2 5 -8 9 -9 9 -3 0 7
15 12 33 13 40 1 58 4 76 15 8 5 17 3 22 -5 6 -9 12 -10 17 -4 4 6 29 11 56
13 28 2 55 7 62 13 8 7 15 6 19 -2 6 -8 10 -7 16 2 7 12 9 12 9 0 0 -9 4 -10
13 -4 6 6 27 10 45 9 17 0 32 4 32 9 0 6 5 3 10 -5 6 -9 10 -10 10 -3 0 6 8
12 18 12 23 0 44 5 61 15 10 6 12 5 7 -2 -4 -7 -3 -12 3 -12 5 0 13 5 17 11 4
8 9 7 15 -2 7 -11 9 -11 9 -1 0 7 6 12 13 11 14 -3 88 11 101 19 4 2 28 6 53
8 25 2 51 7 57 12 6 4 26 7 44 7 17 -1 32 4 32 9 0 6 5 4 10 -4 7 -12 10 -12
10 -1 0 7 6 11 15 8 8 -4 17 -2 20 3 3 5 12 7 20 3 9 -3 15 1 15 8 0 11 3 11
10 -1 8 -12 10 -12 10 -1 0 8 3 11 7 8 3 -4 13 -1 21 6 13 10 14 9 7 -3 -8
-13 -6 -13 7 -2 9 8 29 14 45 16 15 1 33 4 38 8 6 3 22 5 37 4 14 -1 24 2 22
6 -3 4 -4 8 -2 9 2 0 26 3 53 6 28 3 57 12 67 20 12 11 18 11 23 3 5 -8 10 -9
14 -2 3 6 18 12 31 14 14 2 31 7 38 11 6 5 12 5 12 1 0 -3 8 0 17 7 13 11 15
11 9 1 -6 -11 -4 -11 13 -3 48 25 57 28 79 26 12 -1 22 2 22 7 0 5 4 7 9 3 5
-3 13 0 16 6 4 5 13 8 21 5 8 -3 14 -1 14 5 0 6 4 7 10 4 5 -3 20 1 33 10 13
8 26 13 29 10 3 -3 22 2 42 10 20 9 41 13 46 10 6 -4 10 -1 10 5 0 7 7 10 15
6 8 -3 15 -2 15 3 0 7 48 22 66 20 4 0 10 4 13 10 4 6 19 12 34 13 15 1 27 5
27 9 0 6 44 18 83 22 9 1 17 7 17 13 0 7 8 10 20 7 12 -3 20 0 20 6 0 7 5 9
10 6 6 -3 10 -1 10 6 0 8 5 7 17 -2 15 -12 16 -12 11 2 -5 13 -2 16 13 12 10
-3 19 0 19 6 0 6 9 11 20 11 11 0 28 4 38 9 25 14 56 24 65 23 4 -1 7 3 7 8 0
5 3 9 8 9 19 -3 33 2 27 11 -3 5 0 7 8 4 8 -3 19 1 25 9 7 8 23 13 37 11 14
-1 25 2 25 8 0 6 7 7 16 4 8 -3 12 -2 9 4 -3 6 3 10 14 10 12 0 21 4 21 10 0
5 3 9 8 8 4 -1 24 6 46 15 21 9 45 17 52 17 8 0 14 4 14 9 0 7 11 12 48 21 4
1 12 6 19 12 7 5 18 6 24 2 8 -4 9 -3 5 4 -5 8 0 12 13 12 12 0 21 5 21 11 0
5 5 7 10 4 6 -3 10 -1 10 5 0 7 7 10 15 6 8 -3 19 2 24 12 5 9 13 16 18 16 4
-1 18 2 31 7 13 5 28 9 33 9 6 0 7 5 3 11 -4 7 -1 10 7 7 8 -3 25 2 39 11 14
10 44 25 67 35 23 11 40 23 36 29 -3 6 -2 7 4 4 11 -7 63 14 63 26 0 4 6 7 14
7 7 0 26 10 42 22 15 13 25 17 21 10 -6 -8 -3 -10 7 -6 9 3 13 10 10 15 -3 5
3 9 14 9 10 0 29 9 42 20 21 18 29 22 47 19 3 0 10 6 15 15 5 9 13 14 19 11 5
-4 9 -1 9 4 0 6 7 11 15 11 8 0 15 4 15 10 0 5 3 10 8 9 15 -2 52 14 52 22 0
5 7 9 15 9 8 0 15 5 15 10 0 6 4 10 9 10 20 0 121 67 113 75 -4 4 1 5 11 2 9
-4 17 -2 17 3 0 6 7 10 15 10 8 0 15 5 15 10 0 6 7 10 15 10 9 0 18 7 21 15 4
8 10 13 14 10 4 -2 20 7 34 20 15 14 34 25 42 25 8 0 17 7 20 15 4 8 10 12 15
9 5 -3 9 0 9 6 0 6 5 8 10 5 6 -3 10 -1 10 5 0 6 12 16 28 23 15 6 32 19 39
27 6 8 15 15 20 15 5 0 17 8 27 18 10 9 26 17 37 17 10 0 19 5 19 11 0 5 -4 7
-10 4 -5 -3 -10 -3 -10 0 0 3 13 11 30 16 16 6 30 15 30 21 0 5 5 6 10 3 6 -3
10 -2 10 3 0 5 13 15 30 22 16 7 28 15 25 19 -2 4 12 15 31 26 19 10 34 22 34
27 0 5 5 6 10 3 6 -3 10 -1 10 5 0 6 11 15 25 22 13 6 22 16 18 21 -4 6 0 8
10 4 10 -4 16 -2 14 6 -1 7 4 11 11 10 6 -2 12 2 12 7 0 6 7 10 16 10 8 0 13
4 9 9 -3 5 4 12 15 16 11 3 20 14 21 23 0 12 2 13 6 4 4 -10 9 -8 20 7 8 12
19 19 24 16 5 -4 9 1 9 9 0 8 9 18 20 21 11 3 20 14 20 23 0 14 2 14 9 3 7
-11 10 -9 15 7 4 11 18 23 32 26 14 4 22 11 19 16 -3 6 -2 10 2 10 5 0 21 11
36 25 15 14 27 23 27 20 0 -3 6 0 14 7 8 7 13 15 11 18 -2 3 15 16 36 30 21
13 39 30 39 37 0 7 6 13 13 13 17 0 47 36 39 46 -4 4 -2 4 4 1 13 -7 66 37 57
47 -4 3 1 6 10 6 9 0 21 9 27 20 6 11 15 18 20 15 5 -3 12 4 15 16 4 11 9 18
11 16 3 -3 58 48 122 111 64 64 120 116 124 114 5 -1 7 1 6 6 -4 12 35 52 52
52 12 0 12 2 1 9 -9 6 -10 11 -2 15 6 4 11 4 11 0 0 -4 10 5 23 22 12 16 48
55 80 87 32 31 56 57 53 57 -2 0 26 32 65 70 38 38 66 70 63 70 -4 0 4 10 17
23 13 13 32 35 43 50 10 15 22 24 27 21 5 -3 6 3 2 12 -4 12 -3 15 5 10 7 -4
12 -1 12 7 0 8 7 17 15 21 8 3 15 11 15 17 0 6 11 22 24 34 14 13 22 26 19 29
-4 3 1 6 10 6 9 0 16 4 14 9 -1 5 10 23 26 40 15 17 25 31 22 31 -3 0 7 13 22
29 36 38 48 53 62 79 7 14 17 20 24 15 7 -4 5 2 -3 12 -8 10 -10 16 -5 13 6
-3 20 5 33 18 12 13 19 24 15 24 -4 1 2 9 14 19 12 10 19 21 16 25 -3 3 1 8
10 12 9 3 13 12 10 21 -4 11 -3 14 6 9 8 -5 14 -1 18 13 3 12 9 21 14 21 5 0
9 5 9 11 0 7 9 20 21 30 11 9 21 21 21 26 1 17 25 43 33 35 5 -4 5 -1 1 5 -4
8 3 23 16 36 13 13 22 30 20 37 -3 8 0 10 8 5 10 -6 12 -4 7 8 -4 11 -1 17 9
17 8 0 12 5 9 11 -4 6 2 17 14 25 12 8 21 22 21 30 0 8 5 14 11 14 5 0 7 5 4
10 -3 6 -1 10 6 10 7 0 9 3 6 7 -4 3 4 16 18 28 13 13 21 26 18 29 -4 3 -1 6
6 6 7 0 10 4 7 9 -3 4 3 19 14 32 11 13 23 29 28 34 5 6 7 16 4 23 -2 6 4 12
13 12 9 0 13 5 10 11 -4 5 3 18 15 29 12 10 21 21 21 24 -2 18 1 25 19 46 11
13 20 29 20 37 0 7 4 13 9 13 5 0 12 11 15 25 4 14 10 24 14 21 4 -2 9 5 9 16
1 12 7 24 14 28 6 5 8 13 4 20 -5 8 -4 11 2 7 9 -6 23 12 22 28 0 3 7 13 16
21 8 9 13 20 9 25 -3 5 2 12 10 15 9 3 16 15 16 25 0 10 3 19 8 19 10 0 32 51
26 61 -3 5 0 9 5 9 10 0 61 94 61 113 0 5 9 20 20 34 11 14 18 29 15 33 -3 4
2 11 11 14 8 3 12 10 9 16 -3 5 -2 10 4 10 6 0 8 7 5 15 -4 8 1 17 10 21 9 3
14 10 11 14 -3 5 -1 11 5 15 6 4 8 11 5 16 -4 5 -2 9 4 9 5 0 12 14 16 30 4
17 11 28 16 24 5 -3 9 -2 8 3 -4 22 2 43 16 57 9 8 16 18 16 21 -1 23 14 68
23 71 7 3 13 14 13 27 1 12 7 23 13 25 5 2 10 8 10 13 0 6 -6 7 -12 4 -7 -4
-5 0 5 8 9 8 17 24 17 36 0 11 5 21 10 21 6 0 10 9 10 21 0 11 4 18 8 15 5 -3
8 8 7 24 -1 16 2 27 6 25 6 -4 21 36 18 51 0 4 3 10 8 13 13 9 43 92 37 102
-3 5 0 9 7 9 7 0 10 3 6 6 -3 4 0 13 8 20 7 8 12 25 11 39 -2 13 0 22 4 20 10
-6 22 24 14 36 -3 5 0 9 6 9 6 0 8 4 5 10 -3 5 -1 10 5 10 6 0 8 4 5 10 -3 6
-1 10 5 10 6 0 8 5 5 10 -4 6 -1 18 7 27 11 14 11 16 -2 8 -9 -5 -8 0 4 13 11
12 16 22 11 22 -4 0 -2 6 4 13 6 8 8 17 4 20 -3 4 -1 7 5 7 6 0 9 9 7 20 -2
11 0 22 6 25 5 4 9 17 9 31 0 13 4 24 8 24 5 0 14 21 20 47 7 27 15 57 18 68
3 11 7 28 7 38 1 9 5 17 10 17 4 0 5 5 2 10 -3 6 -2 10 3 10 5 0 9 6 9 13 1
22 11 66 18 77 7 11 14 47 18 83 1 9 5 17 10 17 4 0 5 5 2 10 -3 6 -2 10 2 10
5 0 9 8 10 18 2 27 11 74 22 109 5 17 7 34 3 37 -3 3 -1 6 4 6 5 0 11 8 12 18
2 19 9 54 13 62 2 5 6 33 8 63 0 10 5 16 9 13 4 -2 7 11 7 30 -1 19 2 34 6 34
4 0 6 20 6 44 -1 28 2 42 9 39 6 -2 10 6 9 19 -1 13 3 29 9 37 9 12 8 13 -2 7
-12 -7 -12 -4 -2 15 7 12 13 37 14 53 1 17 4 36 8 42 4 5 5 19 4 30 -2 10 1
28 7 39 6 11 12 40 13 65 2 25 6 61 10 80 3 19 6 43 6 53 -1 9 4 15 10 11 6
-4 6 2 -1 15 -7 11 -8 21 -3 21 5 0 8 14 7 30 -1 16 2 30 7 30 7 0 6 5 -1 13
-7 9 -7 17 0 24 5 5 10 31 11 56 0 28 5 44 10 41 6 -4 5 3 -1 14 -6 12 -7 23
-2 26 4 3 8 37 7 75 -1 40 3 67 8 63 5 -3 7 2 3 11 -3 10 -3 17 2 17 11 0 8
44 -4 52 -6 5 -6 8 2 8 16 0 16 1382 0 1392 -7 4 -6 12 4 24 10 12 10 15 1 10
-10 -6 -13 3 -12 36 1 85 0 89 -11 82 -8 -4 -8 -1 0 14 8 14 8 23 1 27 -8 5
-8 11 0 20 6 7 7 16 2 19 -5 3 -10 24 -11 48 -2 24 -3 49 -4 56 0 6 -5 12 -11
12 -6 0 -4 5 4 10 8 5 10 10 4 10 -6 0 -10 10 -9 23 1 12 -2 30 -7 40 -6 12
-5 17 4 17 9 0 10 3 2 8 -6 4 -10 15 -8 24 1 10 -1 20 -6 23 -4 2 -5 16 -2 30
2 14 0 25 -4 25 -5 0 -9 19 -9 43 0 23 -4 45 -10 49 -6 5 -4 8 5 8 12 0 12 2
2 9 -7 4 -13 27 -14 49 0 23 -3 42 -7 42 -4 0 -8 19 -10 42 -1 23 -7 46 -14
50 -9 6 -8 8 2 8 11 0 11 3 1 15 -7 8 -9 15 -5 15 4 0 2 7 -5 15 -10 12 -10
15 1 15 12 0 12 2 0 9 -8 5 -12 19 -9 35 3 14 1 26 -4 26 -6 0 -8 7 -4 15 3 8
1 15 -5 15 -6 0 -7 5 -4 10 4 6 1 18 -7 27 -11 14 -11 16 1 8 11 -6 12 -5 5 6
-4 8 -9 19 -11 24 -1 6 -5 21 -9 35 -3 14 -9 44 -11 68 -3 23 -9 42 -13 42 -5
0 -7 8 -5 18 1 9 -4 29 -12 45 -11 21 -11 27 -1 27 10 0 10 2 -1 9 -7 5 -14
23 -15 40 0 17 -4 31 -7 31 -4 0 -10 19 -14 43 -12 68 -13 70 -27 78 -11 7
-10 9 1 9 10 0 11 3 2 14 -6 8 -10 20 -9 27 2 8 -1 13 -7 12 -5 -1 -11 8 -11
20 -3 53 -9 80 -20 84 -6 2 -9 15 -6 29 2 13 0 24 -5 24 -5 0 -10 12 -11 27
-1 15 -6 29 -11 32 -4 3 -7 18 -7 33 1 14 -2 24 -6 22 -4 -3 -8 0 -8 5 0 21
-2 26 -13 40 -9 12 -9 13 1 7 8 -5 5 8 -7 30 -11 20 -18 41 -15 46 3 4 0 8 -7
8 -7 0 -9 10 -7 25 3 13 1 23 -5 22 -5 -1 -11 5 -13 13 -2 8 -5 24 -8 35 -2
11 -5 22 -6 25 -1 3 -2 8 -1 13 0 4 -3 7 -8 7 -6 0 -8 9 -6 20 2 12 -2 20 -10
20 -8 0 -12 9 -11 24 2 14 -3 27 -11 30 -8 3 -12 10 -8 15 3 5 0 13 -6 16 -5
4 -8 13 -5 21 3 7 0 17 -7 21 -11 7 -16 22 -19 61 -1 6 -5 12 -10 12 -4 0 -8
9 -8 20 0 11 -4 20 -10 20 -5 0 -10 11 -10 25 0 14 -4 25 -9 25 -5 0 -12 16
-15 35 -4 19 -11 35 -17 35 -6 0 -7 5 -4 10 3 6 1 10 -6 10 -7 0 -9 3 -6 7 4
3 2 12 -4 20 -6 7 -8 13 -5 13 4 0 -3 14 -15 32 -13 17 -18 29 -12 25 8 -5 8
0 0 18 -7 14 -15 25 -19 25 -5 0 -8 8 -8 18 0 9 -7 25 -15 35 -7 11 -11 25 -8
33 3 8 -1 14 -10 14 -10 0 -15 7 -12 20 2 11 0 20 -4 20 -9 0 -24 38 -22 53 1
4 -3 7 -8 7 -9 0 -27 40 -22 49 2 2 -2 7 -9 11 -6 4 -12 16 -13 28 0 11 -5 18
-9 16 -4 -3 -8 2 -8 10 0 9 -4 16 -10 16 -5 0 -10 9 -10 20 0 11 -5 20 -10 20
-6 0 -9 3 -8 8 3 11 -33 82 -43 82 -5 0 -6 7 -3 15 4 8 2 15 -4 15 -5 0 -13
11 -16 25 -4 14 -11 25 -17 25 -6 0 -7 5 -4 10 3 6 1 10 -5 10 -6 0 -8 5 -5
10 3 6 1 10 -6 10 -7 0 -10 3 -6 6 3 4 -1 13 -9 21 -8 8 -12 19 -9 24 4 5 1 9
-4 9 -6 0 -11 7 -11 15 0 8 -5 15 -11 15 -5 0 -7 5 -4 10 3 6 -1 13 -9 16 -9
3 -14 10 -11 14 3 5 -1 14 -8 22 -7 7 -20 28 -28 46 -7 17 -17 32 -21 32 -5 0
-7 6 -6 13 2 6 -3 11 -10 9 -8 -1 -11 2 -8 7 6 8 -25 64 -54 98 -6 7 -15 24
-22 38 -6 14 -15 25 -20 25 -5 0 -6 5 -3 10 3 6 3 10 -2 10 -4 0 -16 18 -27
40 -10 21 -25 41 -33 44 -8 3 -11 10 -8 16 3 6 -1 13 -9 16 -9 3 -13 10 -10
15 3 5 0 9 -5 9 -6 0 -11 7 -11 15 0 8 -4 15 -10 15 -5 0 -10 7 -10 15 0 8 -5
15 -11 15 -5 0 -8 4 -5 9 3 5 -1 11 -9 15 -8 3 -15 12 -15 21 0 8 -4 15 -9 15
-5 0 -14 13 -21 30 -7 16 -16 27 -21 24 -5 -3 -9 0 -9 6 0 9 -35 65 -50 80 -3
3 -16 22 -30 42 -14 21 -28 38 -32 38 -5 0 -8 7 -8 15 0 8 -4 15 -10 15 -5 0
-10 7 -10 16 0 8 -4 12 -10 9 -5 -3 -10 1 -10 10 0 9 -12 27 -26 40 -15 14
-23 29 -18 36 4 7 3 10 -2 7 -5 -2 -19 6 -31 19 -12 13 -20 23 -17 23 3 0 -1
6 -8 14 -7 7 -20 24 -28 36 -8 12 -27 35 -42 50 -16 16 -28 32 -28 37 0 5 -9
15 -19 23 -11 7 -18 17 -15 22 3 4 -2 8 -11 8 -9 0 -14 4 -11 8 3 5 -4 14 -14
22 -10 8 -17 17 -14 22 3 4 -3 8 -12 8 -10 0 -14 3 -11 6 3 4 -7 19 -23 34
-17 16 -30 33 -30 40 0 6 -4 8 -10 5 -5 -3 -10 -2 -10 3 0 5 -13 23 -30 40
-16 18 -30 34 -30 37 0 3 -22 27 -49 54 -27 27 -47 52 -43 55 3 3 -2 6 -12 6
-9 0 -14 5 -11 10 3 6 -1 10 -9 10 -9 0 -16 5 -16 11 0 6 -22 33 -50 61 -27
28 -50 55 -50 61 0 6 -2 8 -5 5 -7 -7 -95 80 -95 93 0 5 -4 9 -9 9 -13 0 -60
47 -54 54 4 3 1 6 -6 6 -8 0 -30 18 -51 40 -21 22 -43 40 -49 40 -7 0 -9 5 -6
10 3 6 1 10 -5 10 -15 0 -40 25 -40 41 0 7 -3 9 -7 6 -9 -9 -34 13 -27 24 3 5
0 8 -8 7 -7 -2 -12 3 -10 10 1 8 -2 11 -9 7 -6 -4 -23 6 -39 23 -15 17 -30 29
-33 26 -3 -3 -8 4 -12 16 -4 13 -12 19 -21 16 -8 -3 -13 -2 -10 2 5 9 -29 42
-43 42 -4 0 -16 11 -27 24 -10 14 -21 23 -26 20 -4 -3 -8 2 -8 11 0 11 -5 15
-16 11 -8 -3 -13 -2 -11 2 3 4 -1 13 -9 20 -8 7 -14 10 -14 7 0 -3 -15 9 -34
27 -18 18 -44 40 -56 48 -13 8 -41 32 -62 52 -21 20 -38 34 -38 32 0 -2 -11 3
-25 12 -14 9 -22 21 -18 27 3 6 1 7 -5 3 -7 -4 -12 -2 -12 4 0 7 -5 10 -12 8
-7 -3 -24 7 -39 21 -42 40 -59 53 -59 44 0 -4 -5 0 -11 10 -5 9 -16 17 -24 17
-8 0 -19 9 -25 20 -6 11 -15 18 -21 15 -5 -4 -9 1 -9 10 0 9 -4 13 -10 10 -5
-3 -10 -1 -10 4 0 6 -6 10 -12 8 -7 -1 -12 4 -10 12 2 8 -3 11 -12 8 -16 -6
-40 16 -29 26 3 4 -1 7 -11 7 -17 0 -29 8 -68 45 -12 11 -17 13 -13 5 5 -8 -3
-5 -16 6 -29 26 -71 49 -82 46 -5 -1 -6 1 -4 5 6 9 -13 27 -33 31 -8 2 -25 13
-37 24 -13 12 -23 18 -23 14 0 -4 -6 -1 -14 6 -22 21 -53 41 -61 39 -3 -1 -15
7 -24 18 -10 11 -21 18 -25 14 -3 -3 -6 -1 -6 6 0 7 -4 9 -10 6 -5 -3 -10 -1
-10 4 0 6 -7 11 -15 11 -8 0 -15 4 -15 8 0 5 -16 14 -35 22 -19 8 -35 17 -35
22 0 4 -7 8 -15 8 -8 0 -15 5 -15 10 0 6 -9 10 -20 10 -11 0 -20 5 -20 10 0 6
-7 10 -15 10 -8 0 -15 5 -15 10 0 6 -9 10 -20 10 -11 0 -20 4 -20 8 0 5 -18
16 -41 25 -27 11 -38 20 -33 28 4 7 3 9 -4 5 -12 -7 -62 13 -62 26 0 4 -9 8
-20 8 -11 0 -20 3 -20 8 0 7 -77 44 -83 39 -2 -1 -11 6 -21 16 -10 9 -24 17
-32 17 -8 0 -14 4 -14 9 0 5 -7 12 -16 15 -10 4 -13 2 -8 -7 4 -6 -2 -4 -13 6
-11 9 -23 14 -26 10 -4 -3 -7 -1 -7 6 0 7 -4 10 -9 7 -5 -4 -11 -1 -13 4 -2 6
-13 12 -25 13 -12 0 -20 4 -17 8 4 7 -34 22 -48 20 -5 -1 -8 5 -8 12 0 8 -4 7
-10 -3 -8 -13 -10 -12 -10 3 0 10 -5 15 -10 12 -6 -3 -13 0 -16 8 -3 9 -16 14
-29 12 -13 -1 -26 4 -29 11 -3 8 -15 14 -26 14 -14 0 -19 4 -14 12 5 8 0 9
-14 6 -12 -4 -22 -2 -22 4 0 5 -4 6 -10 3 -5 -3 -10 -1 -10 4 0 6 -9 11 -19
11 -11 0 -21 4 -23 10 -1 5 -15 11 -30 12 -16 1 -28 6 -28 10 0 4 -7 8 -15 8
-8 0 -15 5 -15 11 0 5 -4 8 -9 4 -6 -3 -25 3 -44 14 -19 11 -38 17 -41 14 -3
-4 -6 -2 -6 3 0 5 -10 10 -22 11 -11 1 -25 8 -29 15 -5 7 -9 9 -9 5 0 -4 -10
-2 -22 5 -13 7 -27 12 -33 13 -5 0 -28 9 -50 19 -22 11 -49 21 -60 22 -11 2
-29 8 -40 13 -11 4 -37 16 -58 25 -21 9 -43 14 -48 11 -5 -4 -9 -2 -9 3 0 4
-23 14 -50 21 -28 7 -48 16 -46 20 3 4 -5 8 -17 8 -27 2 -96 22 -120 34 -10 5
-22 7 -27 4 -6 -4 -10 -1 -10 6 0 7 -10 9 -25 7 -13 -3 -22 -1 -19 3 3 5 -3 9
-13 9 -11 0 -24 5 -31 12 -9 9 -12 9 -12 -2 0 -13 -2 -13 -10 0 -5 8 -10 11
-10 7 0 -5 -10 -1 -21 7 -12 8 -27 12 -34 10 -6 -3 -17 2 -24 10 -10 12 -18
13 -32 5 -13 -6 -19 -6 -19 1 0 5 -11 10 -25 10 -14 0 -25 4 -25 8 0 9 -7 10
-55 13 -14 1 -25 6 -25 11 0 6 -12 8 -26 5 -15 -3 -28 0 -30 8 -3 7 -18 11
-35 10 -16 -1 -29 1 -29 6 0 4 -12 7 -27 5 -16 -1 -36 4 -46 12 -9 9 -20 13
-23 9 -3 -3 -26 0 -50 8 -24 7 -44 11 -44 8 0 -3 -6 0 -14 6 -11 9 -15 9 -19
-1 -4 -10 -6 -10 -6 0 -1 7 -15 12 -36 12 -19 0 -35 4 -35 8 0 5 -18 8 -39 8
-22 -1 -37 2 -35 6 2 4 -4 7 -13 6 -23 0 -60 9 -75 18 -7 5 -8 3 -3 -5 6 -10
3 -11 -14 -2 -11 7 -21 10 -21 7 0 -3 -19 0 -42 7 -24 7 -55 12 -70 11 -16 -1
-28 3 -28 9 0 5 -8 3 -17 -4 -11 -9 -14 -10 -9 -2 5 9 -1 13 -18 13 -15 0 -37
0 -51 0 -14 0 -25 5 -25 11 0 8 -5 7 -15 -1 -8 -7 -15 -8 -15 -3 0 5 -21 11
-47 13 -27 1 -56 3 -65 3 -10 1 -18 6 -18 12 0 5 -5 3 -10 -5 -5 -8 -10 -10
-10 -4 0 6 -12 10 -27 9 -16 -1 -34 2 -40 8 -9 6 -13 5 -13 -3 0 -9 -4 -9 -12
-2 -7 5 -34 9 -61 8 -37 -1 -46 1 -42 13 4 10 2 11 -7 4 -15 -11 -28 -11 -45
0 -7 5 -13 4 -13 -1 0 -6 -17 -6 -42 -1 -59 10 -1398 9 -1419 -1 -10 -6 -20
-5 -27 2 -9 9 -12 9 -12 -2z"/>
</g>
</svg>
